<?xml version="1.0" encoding="iso-8859-1"?>
<!-- Generator: Adobe Illustrator 19.0.0, SVG Export Plug-In . SVG Version: 6.00 Build 0)  -->
<svg version="1.1" id="Capa_1" xmlns="http://www.w3.org/2000/svg" xmlns:xlink="http://www.w3.org/1999/xlink" x="0px" y="0px"
	 viewBox="0 0 496 496" style="enable-background:new 0 0 496 496;" xml:space="preserve">
<polygon style="fill:#F0BC5E;" points="234.168,0 172.688,0 274.344,101.656 332.032,57.088 "/>
<rect x="43.159" y="199.999" transform="matrix(-0.8321 0.5547 -0.5547 -0.8321 247.2886 341.1304)" width="57.69" height="16.001"/>
<rect x="22.798" y="228.007" transform="matrix(-0.8321 0.5547 -0.5547 -0.8321 185.8882 415.7356)" width="14.425" height="16.001"/>
<rect x="35.153" y="301.351" transform="matrix(-0.8321 0.5547 -0.5547 -0.8321 288.8388 531.2532)" width="57.69" height="16.001"/>
<rect x="102.391" y="269.352" transform="matrix(-0.8321 0.5547 -0.5547 -0.8321 359.0467 445.999)" width="19.233" height="16.001"/>
<rect x="0.735" y="264.013" transform="matrix(-0.8321 0.5547 -0.5547 -0.8321 231.4988 473.938)" width="86.54" height="16.001"/>
<rect x="0.738" y="360.015" transform="matrix(-0.8321 0.5547 -0.5547 -0.8321 284.7545 649.8175)" width="86.54" height="16.001"/>
<rect x="162.83" y="217.191" transform="matrix(-0.8291 0.5591 -0.5591 -0.8291 564.9218 277.7029)" width="154.376" height="16"/>
<path d="M469.16,7.84C456.144,2.64,442.432,0,428.416,0c-25.336,0-50.056,8.856-69.632,24.928L162.92,185.816l10.16,12.368
	L368.944,37.296c9.736-8,20.992-13.832,32.944-17.368C400.68,24.688,400,29.576,400,34.552c0,15.968,6.216,30.984,17.512,42.272
	l0.832,0.832l11.312-11.312l-0.832-0.832C420.552,57.24,416,46.248,416,34.552c0-5.92,1.176-11.68,3.496-17.128l0.432-1.016
	c2.816-0.264,5.64-0.408,8.488-0.408c11.976,0,23.68,2.256,35.496,6.984C473.68,26.888,480,36.216,480,46.752
	c0,8.232-3.992,16.008-10.68,20.808l-113.984,81.776l9.328,13l113.984-81.784C489.512,72.76,496,60.12,496,46.752
	C496,29.64,485.736,14.48,469.16,7.84z"/>
<rect y="480" width="496" height="16"/>
<g>
	<path style="fill:#F0BC5E;" d="M132.528,243.416L59.392,88h32.496l96.008,122.192L132.528,243.416z"/>
	<path style="fill:#F0BC5E;" d="M136,388.944V259.472l59.144-35.488l-28.008,149.392L136,388.944z"/>
	<path style="fill:#F0BC5E;" d="M296,368V147.056l82.256-41.128l-34.84,226.512L296,368z"/>
</g>
<g>
</g>
<g>
</g>
<g>
</g>
<g>
</g>
<g>
</g>
<g>
</g>
<g>
</g>
<g>
</g>
<g>
</g>
<g>
</g>
<g>
</g>
<g>
</g>
<g>
</g>
<g>
</g>
<g>
</g>
</svg>
