<?xml version="1.0" encoding="iso-8859-1"?>
<!-- Generator: Adobe Illustrator 19.0.0, SVG Export Plug-In . SVG Version: 6.00 Build 0)  -->
<svg version="1.1" id="Capa_1" xmlns="http://www.w3.org/2000/svg" xmlns:xlink="http://www.w3.org/1999/xlink" x="0px" y="0px"
	 viewBox="0 0 496 496" style="enable-background:new 0 0 496 496;" xml:space="preserve">
<polygon style="fill:#F0BC5E;" points="302.536,34.744 264,9.056 264,152 359.456,181.104 "/>
<rect x="132.016" y="103.875" transform="matrix(-0.5547 0.8321 -0.8321 -0.5547 364.123 157.1177)" width="16.001" height="144.246"/>
<path d="M446.288,303.016c-2.968-13.536-9.784-25.944-19.712-35.88c-6.368-6.368-13.776-11.456-22.016-15.12l6.496-14.616
	c10.04,4.464,19.072,10.664,26.832,18.424c12.096,12.104,20.4,27.232,24.024,43.76L446.288,303.016z"/>
<polygon style="fill:#F0BC5E;" points="85.032,88.568 0,122.584 0,162.416 130.064,127.728 "/>
<rect y="480" width="496" height="16"/>
<rect x="160" y="144" width="16" height="16"/>
<rect x="200" y="160" width="16" height="16"/>
<rect x="336.032" y="349.364" transform="matrix(-0.53 0.848 -0.848 -0.53 870.6253 329.386)" width="16" height="113.2"/>
<rect x="231.983" y="299.083" transform="matrix(-0.5214 0.8533 -0.8533 -0.5214 700.3235 392.887)" width="16" height="187.51"/>
<rect x="408.027" y="441.583" transform="matrix(-0.53 0.848 -0.848 -0.53 1018.981 337.2621)" width="16" height="18.864"/>
<rect x="88" y="309.396" transform="matrix(-0.53 0.848 -0.848 -0.53 457.2438 478.5656)" width="16" height="113.2"/>
<rect x="160.059" y="401.567" transform="matrix(-0.53 0.848 -0.848 -0.53 605.6567 486.3141)" width="16" height="18.864"/>
<path d="M460.512,233.2c-10.552-10.56-22.824-18.984-36.536-25.08l-268.8-116.008l-0.08,0.184L108.944,0H80v100.528L125.784,128H160
	v-16.384l257.552,111.152c11.832,5.264,22.488,12.576,31.648,21.736c19.864,19.864,30.8,46.272,30.8,74.36
	c0,5.04-4.096,9.136-9.128,9.136c-4.024,0-8.08-0.4-12.04-1.192c-67.76-13.552-131.888-38.888-190.616-75.32l-8.44,13.592
	c60.36,37.44,126.272,63.488,195.912,77.408c5,1.008,10.104,1.512,15.184,1.512C484.728,344,496,332.728,496,318.872
	C496,286.504,483.4,256.08,460.512,233.2z M144,112h-13.784L96,91.472V16h3.056L144,105.888V112z"/>
<path style="fill:#F0BC5E;" d="M62.296,304.48l-39.168-26.112l209.52-87.304l101.376,60.824L62.296,304.48z"/>
<g>
</g>
<g>
</g>
<g>
</g>
<g>
</g>
<g>
</g>
<g>
</g>
<g>
</g>
<g>
</g>
<g>
</g>
<g>
</g>
<g>
</g>
<g>
</g>
<g>
</g>
<g>
</g>
<g>
</g>
</svg>
